Coordinates
version=1
nRows=15
nColumns=34
inDegrees=yes

Units are S.I. units (second, meters, Newtons, ...)
If the header above contains a line with 'inDegrees', this indicates whether rotational values are in degrees (yes) or radians (no).

endheader
time	pelvis_tilt	pelvis_list	pelvis_rotation	pelvis_tx	pelvis_ty	pelvis_tz	hip_flexion_r	hip_adduction_r	hip_rotation_r	knee_angle_r	ankle_angle_r	subtalar_angle_r	mtp_angle_r	hip_flexion_l	hip_adduction_l	hip_rotation_l	knee_angle_l	ankle_angle_l	subtalar_angle_l	mtp_angle_l	lumbar_extension	lumbar_bending	lumbar_rotation	arm_flex_r	arm_add_r	arm_rot_r	elbow_flex_r	pro_sup_r	arm_flex_l	arm_add_l	arm_rot_l	elbow_flex_l	pro_sup_l
      0.00000000	      2.23756481	     -2.06179533	      4.82781202	      1.05102699	      1.09011806	     -0.30371091	     -2.57380271	     -2.41232993	     -9.11071533	      2.03660366	     -1.45879374	     -8.68373718	      0.00000000	     -3.66371335	    -11.74755114	     -3.44346485	      4.46837810	      6.86570947	      6.90397884	      0.00000000	     -7.64762297	      2.76416136	     -2.70812279	     -3.30300353	     -8.28081765	     -1.72157402	     28.47496525	     82.88464492	      0.11211889	     -9.06212433	     10.98534663	     25.67377607	     76.70274772
      0.01666670	      1.20252784	     -2.62761083	      4.85148948	      1.05218531	      1.08849651	     -0.30498003	     -1.32660146	     -1.80228461	    -10.28666817	      2.57440775	      0.91789762	     -6.56022085	      0.00000000	     -2.94440248	    -12.03609027	     -2.80227476	      3.29043235	      6.33210928	      8.30405399	      0.00000000	     -6.11349205	      3.11072656	     -2.92408291	     -3.13459084	     -7.30970199	     -6.45372797	     27.38231029	     81.90135284	     -0.35898514	     -7.43152980	      4.21591454	     25.26105160	     76.12688371
      0.03333330	      0.77420291	     -2.75792964	      4.62313202	      1.05297623	      1.09008567	     -0.30398827	     -1.14496845	     -1.49294367	    -10.97262485	      1.91081185	      0.24072414	     -6.60802907	      0.00000000	     -2.95635927	    -12.37029914	     -3.88107991	      2.52580149	      5.45931639	      8.95458074	      0.00000000	     -5.95075858	      3.09696348	     -2.84029678	     -3.92324109	     -6.39654824	    -10.64583882	     28.96359097	     81.61790564	     -1.30840957	     -6.86837003	     -0.06520882	     27.12117886	     77.33646001
      0.05000000	      0.81113516	     -3.12851868	      4.91769614	      1.05788351	      1.08931695	     -0.30566903	     -1.54760283	     -1.18788500	    -11.68728265	      1.51895761	      1.49184501	     -4.27776928	      0.00000000	     -3.62141337	    -12.70249918	     -4.52121920	      1.65869017	      5.15646346	      9.50844576	      0.00000000	     -5.64745767	      3.51662015	     -2.86078518	     -4.53812194	     -6.14314367	    -12.28685147	     29.39574637	     82.52828924	     -1.79276693	     -6.68649127	     -0.94024428	     27.30537803	     79.57238032
      0.06666670	      0.79791044	     -3.43715506	      4.76084343	      1.05537712	      1.08938762	     -0.30890786	     -1.48972244	     -0.94095529	    -11.68098717	      1.57318083	      1.51772253	     -4.28800679	      0.00000000	     -3.98832724	    -12.93298547	     -4.73456855	      1.01850303	      4.88823290	      9.64609477	      0.00000000	     -5.60260534	      4.09578449	     -2.86825826	     -4.35861947	     -6.37409337	    -12.34737421	     29.55122051	     82.60813050	     -1.89424025	     -6.31894578	     -0.86642489	     27.37199079	     79.72358210
      0.08333330	      0.90869673	     -3.51223794	      4.78970959	      1.05469372	      1.08688650	     -0.30733688	     -1.84495600	     -0.82895190	    -11.61045567	      1.18553841	      1.50703107	     -4.05863322	      0.00000000	     -4.29332284	    -12.94827193	     -5.13283320	      0.55318247	      4.83808909	      9.88260228	      0.00000000	     -5.53230752	      4.27216429	     -2.98215103	     -4.36635594	     -6.41513758	    -12.42921614	     30.02075708	     82.80885200	     -1.88150852	     -6.19030973	     -0.81857088	     27.55615816	     80.05048019
      0.10000000	      0.92791339	     -3.28333368	      4.80455233	      1.05835909	      1.09147981	     -0.30887666	     -2.09969260	     -1.11679670	    -11.68135277	      0.91823796	      1.34216367	     -3.84832608	      0.00000000	     -4.50102306	    -12.67227059	     -5.15848345	      0.17516329	      4.67864192	     10.23598693	      0.00000000	     -5.44572262	      4.11320728	     -2.96255121	     -4.51021015	     -6.35755115	    -12.46283643	     30.28171735	     83.00424162	     -1.89852803	     -6.06369301	     -0.82041346	     27.67112608	     80.32498156
      0.11666670	      0.92341610	     -3.26251442	      4.80524571	      1.05580431	      1.08777112	     -0.30807354	     -2.16422684	     -1.07741057	    -11.70842400	      0.82078727	      1.36946699	     -3.83719732	      0.00000000	     -4.48991287	    -12.65489405	     -5.24414723	      0.05712280	      4.70588288	     10.21939563	      0.00000000	     -5.37931731	      4.11809787	     -2.97112963	     -4.36619767	     -6.28002947	    -12.44259791	     30.36398056	     83.03792776	     -1.69945816	     -5.90850617	     -0.80308265	     27.76586983	     80.36799947
      0.13333330	      1.06076929	     -3.23509687	      4.84333976	      1.05604304	      1.08793062	     -0.31264185	     -2.33177181	     -1.19723249	    -12.53853743	      0.81105381	      1.54130038	     -2.65309932	      0.00000000	     -4.63625852	    -12.54060220	     -5.40442776	      0.00000000	      4.87762161	     10.68648396	      0.00000000	     -5.68463525	      4.28676916	     -2.45869446	     -4.79965644	     -6.27938820	    -14.86643439	     31.54899140	     94.57851239	     -1.40471927	     -5.13521218	     -4.60776358	     28.20761677	     95.53992661
      0.15000000	      1.07982955	     -3.17817453	      4.85906618	      1.05255917	      1.08659968	     -0.31085984	     -2.36884959	     -1.27438355	    -12.60226986	      0.65468574	      1.58354957	     -2.70567231	      0.00000000	     -4.62175305	    -12.44737160	     -5.51417852	      0.00000000	      4.83268471	     10.64884386	      0.00000000	     -5.58979385	      4.31489776	     -2.42479362	     -4.55051580	     -6.34970223	    -14.87608215	     31.63241040	     94.58115400	     -1.28496627	     -5.09821961	     -4.61364582	     28.24291498	     95.54598273
      0.16666670	      1.07096462	     -3.14549835	      4.76065848	      1.05407168	      1.08825620	     -0.30904503	     -2.35750910	     -1.27936891	    -12.71787105	      0.54602950	      1.55445617	     -2.74898961	      0.00000000	     -4.62030981	    -12.39716865	     -5.53729498	      0.00000000	      4.74889699	     10.67496271	      0.00000000	     -5.59106742	      4.27991275	     -2.39784992	     -4.36720007	     -6.39685069	    -14.87369616	     31.70165026	     94.58726708	     -1.21918167	     -5.03839530	     -4.61794479	     28.25624194	     95.55372171
      0.18333330	      1.07545748	     -3.06938789	      4.74436909	      1.05596787	      1.08740390	     -0.31231404	     -2.38221819	     -1.44472654	    -13.02435914	      0.55050400	      1.34447931	     -2.80836397	      0.00000000	     -4.69133761	    -12.20296421	     -5.70070621	      0.00000000	      4.62167786	     10.69491976	      0.00000000	     -5.57440586	      4.36692054	     -2.33362130	     -4.13686224	     -6.48906515	    -14.84037105	     31.82463268	     94.60931029	     -1.20553278	     -4.86152580	     -4.62907984	     28.26986481	     95.57531197
      0.20000000	      1.13213502	     -2.91651047	      4.70831404	      1.05408863	      1.09158084	     -0.31174517	     -2.57302496	     -1.78483256	    -14.48941220	      0.83200260	     -0.23158743	     -2.72667957	      0.00000000	     -4.76055214	    -11.96405889	     -6.14526121	      0.00000000	      4.06724232	     10.97663734	      0.00000000	     -5.66906443	      4.18194188	     -2.22690405	     -3.97545247	     -6.55026133	    -14.57880190	     32.13380867	     94.73113379	     -1.11047731	     -4.82214192	     -4.82336226	     28.31324266	     95.66206274
      0.21666670	      1.27956533	     -2.88824715	      4.56464912	      1.05413801	      1.08390887	     -0.31297505	     -2.62982863	     -1.84689275	    -15.01365831	      0.87747253	     -0.12093715	     -2.19922425	      0.00000000	     -4.98151746	    -11.88014288	     -6.59036741	      0.00000000	      4.50369878	     11.42998434	      0.00000000	     -6.03502834	      4.31632183	     -2.03081579	     -4.10155880	     -6.88519580	    -13.33614705	     33.47208103	     95.27013227	     -1.11393549	     -4.60767888	     -5.62772946	     28.74561610	     96.07544604
      0.23333330	      1.28639347	     -2.75662131	      4.54360028	      1.05597327	      1.08348122	     -0.31116818	     -2.83107891	     -2.15678689	    -16.12905838	      1.02675150	     -1.07244600	     -2.13327810	      0.00000000	     -5.05142437	    -11.71091268	     -6.76834395	      0.00000000	      4.09544374	     11.50253038	      0.00000000	     -5.81717918	      4.15900185	     -1.96464027	     -3.93437332	     -6.89179288	    -13.15412055	     33.64452020	     95.35904524	     -1.10499657	     -4.58835910	     -5.76649293	     28.86284774	     96.18389988
